<?xml version="1.0" encoding="utf-8"?>
<!-- Generator: Adobe Illustrator 16.0.4, SVG Export Plug-In . SVG Version: 6.00 Build 0)  -->
<!DOCTYPE svg PUBLIC "-//W3C//DTD SVG 1.1//EN" "http://www.w3.org/Graphics/SVG/1.1/DTD/svg11.dtd">
<svg version="1.1" id="Layer_1" xmlns="http://www.w3.org/2000/svg" xmlns:xlink="http://www.w3.org/1999/xlink" x="0px" y="0px"
	 width="86.857px" height="79.871px" viewBox="0 0 86.857 79.871" enable-background="new 0 0 86.857 79.871" xml:space="preserve">
<g>
	<path fill="#E7805D" d="M71.075,33.687c0.426,2.06,0.701,4.146,0.701,6.239v0.312c-0.054,5.014-1.438,9.933-4.004,14.221
		c-1.029,1.712-2.263,3.266-3.567,4.747c-1.103,1.262-1.03-0.363-1.03-0.363c0.045-0.729,0.025-1.483-0.045-2.255
		c-0.267-2.778-1.252-5.345-2.184-7.493c-0.985-2.261-1.519-4.259-1.615-6.087c-0.08-1.528,0.149-2.912,0.691-4.101
		c0.472-1.04,1.189-1.972,2.147-2.78c1.536-1.305,3.632-2.291,6.232-2.91c0.496-0.117,1.003-0.223,1.5-0.311
		C69.885,32.915,70.861,32.647,71.075,33.687z"/>
	<path fill="#CBA275" d="M34.913,66.929c2.796,0.816,5.556,1.331,8.273,1.35h0.23c1.492,0,3.008-0.116,4.49-0.365
		c0.133-0.071,0.284-0.107,0.444-0.125c0.187-0.008,0.372-0.034,0.551-0.053c2.396-0.469,4.723-1.25,6.896-2.308
		c0.623-0.391,1.146-0.779,1.608-1.207c0.904-0.842,1.606-1.854,2.033-2.93c0.505-1.277,0.674-2.761,0.515-4.394
		c-0.222-2.335-1.108-4.605-1.937-6.531c-1.136-2.62-1.748-4.973-1.872-7.181c-0.107-2.043,0.221-3.926,0.977-5.584
		c0.666-1.465,1.67-2.769,2.974-3.878c1.916-1.633,4.446-2.832,7.536-3.586c0.407-0.097,0.834-0.178,1.242-0.266
		c1.004-0.213,0.506-1.313,0.506-1.313c-0.444-1.004-0.934-1.98-1.482-2.913c-2.104-3.585-5.033-6.737-8.478-9.106l-0.098-0.072
		c-0.169-0.124-0.267-0.194-0.488-0.194c-0.071,0-0.16,0.01-0.24,0.027c-0.053,0.008-0.107,0.017-0.169,0.026
		c-0.72,0.089-1.42,0.196-2.076,0.32c-2.361,0.436-4.492,1.074-6.347,1.917c-2.529,1.154-4.466,2.655-5.753,4.456
		c-1.969,2.769-2.112,5.992-1.873,8.202c0.204,1.943,0.737,3.994,1.615,6.275c0.232,0.603,0.498,1.216,0.765,1.818
		c0.283,0.657,0.576,1.34,0.851,2.043c0.497,1.294,0.907,2.565,1.207,3.789l0.035,0.143c1.084,4.438,0.861,8.362-0.639,11.664
		c-1.226,2.68-3.39,5.014-6.257,6.754c-1.491,0.905-3.178,1.651-5.025,2.253C34.93,65.951,33.662,66.565,34.913,66.929z"/>
	<path fill="#AFBFDA" d="M44.162,47.915c0.399,2.955,0.177,5.538-0.816,7.722c-0.959,2.104-2.698,3.959-5.016,5.354
		c-1.783,1.074-3.914,1.916-6.31,2.494c-1.19,0.284-2.087,0.586-2.912,0.54c-0.782-0.034-1.216-0.391-1.216-0.391
		c-3.729-2.484-6.844-5.785-9.028-9.55c-2.503-4.333-3.808-9.277-3.781-14.31c0.009-2.254,0.293-4.509,0.843-6.701
		c0,0,0.427-1.056,0.923-0.108c0.027,0.108,0.053,0.205,0.088,0.302c0.018,0.063,0.044,0.134,0.062,0.205
		c0.044,0.134,0.08,0.239,0.116,0.347c0.025,0.089,0.052,0.169,0.088,0.239c0.035,0.108,0.08,0.214,0.116,0.311
		c0.035,0.08,0.062,0.162,0.098,0.241c0.044,0.105,0.089,0.211,0.133,0.319c0.035,0.081,0.071,0.16,0.116,0.248
		c0.053,0.108,0.098,0.205,0.15,0.31l0.125,0.241c0.053,0.106,0.116,0.213,0.169,0.319c0.053,0.106,0.097,0.169,0.133,0.239
		c0.053,0.099,0.115,0.196,0.177,0.302c0,0,0.116,0.188,0.151,0.25c0.062,0.097,0.133,0.203,0.204,0.302
		c0,0,0.125,0.186,0.169,0.239c0.089,0.125,0.177,0.248,0.275,0.373c0,0,0.098,0.134,0.125,0.177
		c0.133,0.179,0.284,0.355,0.435,0.534c0,0,0.026,0.035,0.035,0.035c0.133,0.151,0.284,0.33,0.434,0.489
		c0.035,0.035,0.17,0.177,0.17,0.177c0.106,0.107,0.212,0.222,0.328,0.338c0.044,0.043,0.23,0.223,0.23,0.223
		c0.098,0.097,0.204,0.185,0.301,0.283c0.062,0.053,0.241,0.212,0.241,0.212c0.106,0.09,0.213,0.188,0.336,0.285
		c0.08,0.071,0.16,0.124,0.24,0.196c0.142,0.115,0.257,0.204,0.382,0.293c0.089,0.071,0.187,0.143,0.284,0.205
		c0.125,0.088,0.248,0.176,0.372,0.265c0.098,0.062,0.195,0.134,0.293,0.206c0.125,0.087,0.257,0.168,0.4,0.257
		c0.098,0.069,0.204,0.132,0.312,0.193c0.132,0.081,0.274,0.169,0.417,0.251c0,0,0.23,0.141,0.328,0.194
		c0.133,0.08,0.284,0.159,0.426,0.229c0,0,0.293,0.161,0.364,0.197c0.15,0.071,0.302,0.149,0.453,0.23l0.372,0.177
		c0.178,0.089,0.365,0.17,0.551,0.249l0.319,0.143c0.231,0.098,0.462,0.194,0.702,0.293l0.195,0.08
		c0.329,0.124,0.648,0.247,0.978,0.364l0.258,0.089c0.239,0.08,0.487,0.169,0.745,0.247l0.435,0.135
		c0.205,0.062,0.408,0.123,0.613,0.187c0.106,0.034,0.444,0.122,0.444,0.122c0.212,0.054,0.426,0.116,0.647,0.178
		c0.124,0.035,0.523,0.133,0.523,0.133c0.205,0.046,0.409,0.099,0.622,0.151c0.151,0.036,0.515,0.115,0.515,0.115
		c0.222,0.054,0.453,0.097,0.684,0.142c0.178,0.036,0.354,0.072,0.542,0.107c0.231,0.045,0.462,0.09,0.702,0.124
		c0.187,0.037,0.373,0.062,0.568,0.098c0.24,0.045,0.488,0.08,0.737,0.116c0.195,0.024,0.391,0.053,0.586,0.088
		c0.258,0.036,0.515,0.071,0.771,0.107c0,0,0.41,0.053,0.604,0.072c0.24,0.025,0.488,0.05,0.737,0.079c0,0,0.542,0.052,0.684,0.07
		c0.257,0.026,0.523,0.053,0.798,0.072c0,0,0.559,0.052,0.684,0.061c0.32,0.028,0.639,0.046,0.968,0.062l0.567,0.037
		C43.665,47.168,44.074,47.231,44.162,47.915z"/>
	<path fill="#B2D8B4" stroke="#B2D8B4" stroke-miterlimit="10" d="M20.49,23.274c0.115-0.15,0.222-0.293,0.328-0.443
		c2.272-3,5.157-5.548,8.379-7.42c4.306-2.504,9.215-3.818,14.221-3.818h0.071c2.981,0.009,5.974,0.497,8.797,1.421
		c0.079,0.027,0.159,0.053,0.239,0.08c0,0,1.216,0.542,0.054,1.19c-0.09,0.044-0.188,0.053-0.284,0.08
		c-1.278,0.372-2.485,0.817-3.596,1.331c-3.044,1.385-5.396,3.239-7.011,5.495c-2.015,2.831-2.858,6.41-2.45,10.368
		c0.23,2.228,0.825,4.545,1.82,7.092c0.257,0.666,0.541,1.314,0.808,1.944c0.274,0.63,0.559,1.279,0.799,1.917
		c0,0,0.799,1.51-0.284,1.421c-0.115-0.008-0.56-0.044-0.56-0.044c-0.31-0.026-0.586-0.054-0.852-0.072
		c-0.132-0.008-0.577-0.062-0.577-0.062c-0.267-0.026-0.524-0.062-0.782-0.089c-0.176-0.017-0.577-0.07-0.577-0.07
		c-0.23-0.026-0.48-0.063-0.719-0.098l-0.56-0.08c-0.229-0.037-0.461-0.071-0.684-0.107c-0.176-0.026-0.354-0.062-0.532-0.089
		c-0.222-0.045-0.444-0.08-0.666-0.125c-0.169-0.034-0.337-0.062-0.506-0.098c-0.213-0.045-0.426-0.088-0.63-0.133
		c0,0-0.346-0.071-0.479-0.105c-0.204-0.055-0.408-0.1-0.612-0.151c0,0-0.346-0.089-0.444-0.107c-0.204-0.052-0.4-0.106-0.603-0.168
		c0,0-0.319-0.089-0.409-0.106c-0.178-0.054-0.347-0.108-0.515-0.161c0,0-0.374-0.114-0.444-0.132
		c-0.23-0.071-0.461-0.15-0.684-0.23l-0.241-0.082c-0.284-0.097-0.568-0.203-0.851-0.318l-0.178-0.071
		c-0.222-0.089-0.426-0.177-0.63-0.256l-0.284-0.126c-0.168-0.07-0.336-0.149-0.488-0.222l-0.328-0.159
		c-0.133-0.062-0.266-0.133-0.399-0.196c-0.071-0.035-0.293-0.16-0.293-0.16c-0.125-0.071-0.258-0.143-0.391-0.213l-0.284-0.167
		c-0.115-0.072-0.24-0.143-0.355-0.214c-0.088-0.054-0.177-0.105-0.274-0.168c-0.107-0.071-0.223-0.142-0.337-0.222
		c-0.089-0.054-0.169-0.116-0.249-0.17c-0.106-0.08-0.213-0.151-0.32-0.222c-0.08-0.061-0.16-0.115-0.23-0.177
		c-0.098-0.071-0.195-0.151-0.293-0.231c-0.08-0.071-0.151-0.116-0.213-0.177c-0.097-0.081-0.186-0.161-0.283-0.24
		c0,0-0.151-0.124-0.196-0.169c-0.071-0.062-0.142-0.133-0.212-0.205c0,0-0.178-0.168-0.222-0.213
		c-0.097-0.097-0.187-0.194-0.284-0.283L22.576,36.9c-0.116-0.125-0.241-0.267-0.355-0.401c-0.008-0.009-0.035-0.035-0.045-0.044
		c-0.098-0.116-0.213-0.267-0.329-0.409l-0.097-0.125c-0.08-0.106-0.16-0.203-0.222-0.301c-0.027-0.044-0.106-0.16-0.106-0.16
		c-0.081-0.114-0.133-0.194-0.178-0.276l-0.114-0.177c-0.062-0.097-0.107-0.168-0.151-0.248l-0.089-0.15
		c-0.062-0.117-0.114-0.205-0.16-0.285l-0.106-0.196c-0.035-0.072-0.08-0.159-0.116-0.239c-0.035-0.071-0.062-0.133-0.088-0.196
		c-0.035-0.08-0.071-0.16-0.107-0.239c-0.027-0.062-0.052-0.124-0.079-0.185c-0.035-0.091-0.063-0.161-0.098-0.25l-0.071-0.194
		c-0.026-0.081-0.098-0.284-0.098-0.284l-0.044-0.143c-0.027-0.079-0.044-0.159-0.062-0.231l-0.062-0.222
		c-0.018-0.072-0.044-0.169-0.062-0.257l-0.044-0.177c-0.018-0.088-0.043-0.195-0.062-0.302l-0.026-0.124
		c-0.027-0.125-0.054-0.275-0.072-0.41l-0.009-0.07c-0.018-0.124-0.035-0.231-0.045-0.346c0,0-0.036-0.337-0.044-0.426
		c0,0-0.026-0.329-0.026-0.409c0,0-0.018-0.328-0.018-0.408v-0.4l0.01-0.382v-0.177c0-0.071,0.017-0.382,0.017-0.382l0.027-0.364
		c0-0.062,0.035-0.347,0.035-0.347l0.045-0.337c0.009-0.071,0.053-0.337,0.053-0.337c0.035-0.205,0.072-0.409,0.116-0.613
		l0.08-0.382l0.062-0.266l0.062-0.248l0.062-0.231C19.975,24.5,20.285,23.559,20.49,23.274z"/>
</g>
</svg>
