<?xml version="1.0" encoding="utf-8"?>
<!-- Generator: Adobe Illustrator 16.0.4, SVG Export Plug-In . SVG Version: 6.00 Build 0)  -->
<!DOCTYPE svg PUBLIC "-//W3C//DTD SVG 1.1//EN" "http://www.w3.org/Graphics/SVG/1.1/DTD/svg11.dtd">
<svg version="1.1" id="Layer_1" xmlns="http://www.w3.org/2000/svg" xmlns:xlink="http://www.w3.org/1999/xlink" x="0px" y="0px"
	 width="86.857px" height="79.871px" viewBox="0 0 86.857 79.871" enable-background="new 0 0 86.857 79.871" xml:space="preserve">
<g>
	<path fill="#FFFFFF" d="M32.45,33.022c-0.091,6.623,2.047,12.703,6.313,18.463l-5.38,5.126c-7.24-7.224-11.851-14.855-13.83-23.104
		c1.772,0.948,3.797,1.488,5.948,1.488C28.064,34.994,30.461,34.335,32.45,33.022L32.45,33.022z M53.74,63.173
		c-2.017,1.592-4.17,3.166-6.461,4.725c-2.298-1.565-4.443-3.136-6.457-4.725c-2.066-1.628-3.989-3.279-5.769-4.949l5.162-4.933
		c1.999,2.4,4.277,4.614,7.067,6.868c12.121-9.718,16.833-20.874,14.232-33.521H47.305h-9.88c0.476-1.328,0.682-2.759,0.682-4.25
		c0-2.133-0.531-4.143-1.466-5.905h10.602h28.276C78.379,34.427,71.12,49.462,53.74,63.173L53.74,63.173z"/>
	<path fill="#FFFFFF" d="M15.084,22.389c0-5.752,4.665-10.417,10.417-10.417c5.752,0,10.417,4.665,10.417,10.417
		c0,5.753-4.665,10.417-10.417,10.417C19.748,32.806,15.084,28.142,15.084,22.389L15.084,22.389z"/>
</g>
</svg>
